<svg width="1024" height="1024" viewBox="0 0 1024 1024" fill="none" xmlns="http://www.w3.org/2000/svg">
<circle r="153.034" transform="matrix(-1 0 0 1 274.034 259.034)" fill="url(#paint0_linear_1389_8943)"/>
<circle r="153.034" transform="matrix(-1 0 0 1 274.034 259.034)" fill="white"/>
<circle r="153.034" transform="matrix(-1 0 0 1 274.034 259.034)" fill="#00BBB4"/>
<path fill-rule="evenodd" clip-rule="evenodd" d="M641.312 155.116C701.075 95.3521 797.971 95.3521 857.734 155.116C917.498 214.879 917.498 311.775 857.735 371.538L668.353 560.92L668.353 753.966C668.353 838.485 599.837 907 515.319 907C430.801 907 362.285 838.485 362.285 753.966V499.599C362.285 473.471 368.833 448.872 380.378 427.354C387.578 412.823 397.23 399.197 409.333 387.095L641.312 155.116Z" fill="url(#paint1_linear_1389_8943)"/>
<path fill-rule="evenodd" clip-rule="evenodd" d="M641.312 155.116C701.075 95.3521 797.971 95.3521 857.734 155.116C917.498 214.879 917.498 311.775 857.735 371.538L668.353 560.92L668.353 753.966C668.353 838.485 599.837 907 515.319 907C430.801 907 362.285 838.485 362.285 753.966V499.599C362.285 473.471 368.833 448.872 380.378 427.354C387.578 412.823 397.23 399.197 409.333 387.095L641.312 155.116Z" fill="white"/>
<path fill-rule="evenodd" clip-rule="evenodd" d="M641.312 155.116C701.075 95.3521 797.971 95.3521 857.734 155.116C917.498 214.879 917.498 311.775 857.735 371.538L668.353 560.92L668.353 753.966C668.353 838.485 599.837 907 515.319 907C430.801 907 362.285 838.485 362.285 753.966V499.599C362.285 473.471 368.833 448.872 380.378 427.354C387.578 412.823 397.23 399.197 409.333 387.095L641.312 155.116Z" fill="#00BBB4"/>
<defs>
<linearGradient id="paint0_linear_1389_8943" x1="341.705" y1="332.051" x2="-28.2148" y2="-40.8046" gradientUnits="userSpaceOnUse">
<stop stop-color="#00BBB4"/>
<stop offset="1" stop-color="#3998EA"/>
</linearGradient>
<linearGradient id="paint1_linear_1389_8943" x1="299.379" y1="974.636" x2="1196.59" y2="361.383" gradientUnits="userSpaceOnUse">
<stop stop-color="#00BBB4"/>
<stop offset="1" stop-color="#3998EA"/>
</linearGradient>
</defs>
</svg>
